HIERARCHY
ROOT Hips
{
	OFFSET 0.000000 0.000000 0.000000
	CHANNELS 6 Xposition Yposition Zposition Zrotation Yrotation Xrotation 
	JOINT LeftUpLeg_virtual
	{
		OFFSET 0.000000 0.000000 0.000000
		CHANNELS 3 Zrotation Yrotation Xrotation
		JOINT LeftUpLeg
		{
			OFFSET 8.479694 -4.795517 -0.379053
			CHANNELS 3 Zrotation Yrotation Xrotation
			JOINT LeftLeg
			{
				OFFSET 0.485052 -32.551468 0.112863
				CHANNELS 3 Zrotation Yrotation Xrotation
				JOINT LeftFoot
				{
					OFFSET 0.438033 -32.635670 -3.012641
					CHANNELS 3 Zrotation Yrotation Xrotation
					JOINT LeftToeBase
					{
						OFFSET 0.970169 -13.225353 11.864223
						CHANNELS 3 Zrotation Yrotation Xrotation
						End Site
						{
							OFFSET 0.000000 0.000000 0.000000
						}
					}
				}
			}
		}
	}
	JOINT RightUpLeg_virtual
	{
		OFFSET 0.000000 0.000000 0.000000
		CHANNELS 3 Zrotation Yrotation Xrotation
		JOINT RightUpLeg
		{
			OFFSET -8.479694 -4.795517 -0.379053
			CHANNELS 3 Zrotation Yrotation Xrotation
			JOINT RightLeg
			{
				OFFSET -0.484100 -32.551483 0.112903
				CHANNELS 3 Zrotation Yrotation Xrotation
				JOINT RightFoot
				{
					OFFSET -0.438985 -32.635651 -3.012681
					CHANNELS 3 Zrotation Yrotation Xrotation
					JOINT RightToeBase
					{
						OFFSET -0.970169 -13.225354 11.864223
						CHANNELS 3 Zrotation Yrotation Xrotation
						End Site
						{
							OFFSET 0.000000 0.000000 0.000000
						}
					}
				}
			}
		}
	}
	JOINT Spine_virtual
	{
		OFFSET 0.000000 0.000000 0.000000
		CHANNELS 3 Zrotation Yrotation Xrotation
		JOINT Spine
		{
			OFFSET 0.000000 7.722015 1.166203
			CHANNELS 3 Zrotation Yrotation Xrotation
			JOINT Spine1
			{
				OFFSET 0.000000 12.024086 0.248766
				CHANNELS 3 Zrotation Yrotation Xrotation
				JOINT Spine2
				{
					OFFSET -0.000000 11.503036 -0.491240
					CHANNELS 3 Zrotation Yrotation Xrotation
					JOINT Neck_virtual
					{
						OFFSET 0.000000 0.000000 0.000000
						CHANNELS 3 Zrotation Yrotation Xrotation
						JOINT Neck
						{
							OFFSET 0.000000 18.430687 -3.123054
							CHANNELS 3 Zrotation Yrotation Xrotation
							JOINT Head
							{
								OFFSET -0.000000 9.051071 1.034021
								CHANNELS 3 Zrotation Yrotation Xrotation
								End Site
								{
									OFFSET 0.000000 0.000000 0.000000
								}
							}
						}
					}
					JOINT LeftShoulder_virtual
					{
						OFFSET 0.000000 0.000000 0.000000
						CHANNELS 3 Zrotation Yrotation Xrotation
						JOINT LeftShoulder
						{
							OFFSET 6.197824 13.665230 -4.064723
							CHANNELS 3 Zrotation Yrotation Xrotation
							JOINT LeftArm
							{
								OFFSET 7.778132 -0.187073 -1.709282
								CHANNELS 3 Zrotation Yrotation Xrotation
								JOINT LeftForeArm
								{
									OFFSET 21.954697 0.000000 -2.041093
									CHANNELS 3 Zrotation Yrotation Xrotation
									JOINT LeftHand
									{
										OFFSET 22.992908 0.000000 -0.870901
										CHANNELS 3 Zrotation Yrotation Xrotation
										End Site
										{
											OFFSET 0.000000 0.000000 0.000000
										}
									}
								}
							}
						}
					}
					JOINT RightShoulder_virtual
					{
						OFFSET 0.000000 0.000000 0.000000
						CHANNELS 3 Zrotation Yrotation Xrotation
						JOINT RightShoulder
						{
							OFFSET -6.197824 13.665230 -4.064723
							CHANNELS 3 Zrotation Yrotation Xrotation
							JOINT RightArm
							{
								OFFSET -7.778132 -0.187073 -1.709282
								CHANNELS 3 Zrotation Yrotation Xrotation
								JOINT RightForeArm
								{
									OFFSET -21.954697 0.000000 -2.041093
									CHANNELS 3 Zrotation Yrotation Xrotation
									JOINT RightHand
									{
										OFFSET -22.992908 0.000000 -0.870901
										CHANNELS 3 Zrotation Yrotation Xrotation
										End Site
										{
											OFFSET 0.000000 0.000000 0.000000
										}
									}
								}
							}
						}
					}
				}
			}
		}
	}
}
MOTION
Frames: 14
Frame Time: 0.033333
7.282542 81.722000 5.265991 179.950472 0.978555 -179.942577 -4.142843 -0.951597 10.757434 1.248806 1.099352 -22.096709 7.228382 3.867333 28.037380 -2.222537 -8.966982 -8.012363 0.000000 0.000000 0.000000 -0.635172 -0.878340 10.384424 -5.553205 1.832438 -20.662369 -1.351699 3.048660 30.924733 10.686161 5.516821 -9.587164 0.000000 0.000000 0.000000 2.873376 1.748687 -2.100542 -5.647578 1.932729 0.528941 -0.121213 -2.683889 3.141339 0.013315 0.012320 -0.029700 -0.526919 -1.571192 3.690584 1.168958 -1.801052 -14.706056 0.000000 0.000000 0.000000 0.924988 -0.754258 0.973250 12.404725 3.207753 -3.322692 -4.537099 4.417546 -46.458414 -0.136251 -35.186826 -6.207182 0.000000 0.000000 0.000000 -3.004410 0.417586 0.391898 6.124751 -13.271876 -4.145448 8.674686 -9.601232 -47.684040 -0.134672 30.380780 -4.506848 0.000000 0.000000 0.000000 
7.289158 81.723381 5.261384 179.925815 0.921056 -179.893577 -4.012305 -0.926585 10.877070 1.050544 1.150502 -22.024652 7.449720 3.994319 28.294395 -2.307972 -9.075925 -8.023593 0.000000 0.000000 0.000000 -0.800764 -0.828947 10.402016 -5.306810 1.633238 -20.640483 -1.301744 2.547046 31.180404 10.363850 5.173983 -9.583522 0.000000 0.000000 0.000000 2.859307 1.696060 -2.080982 -5.661862 1.889631 0.478836 -0.149195 -2.711068 3.127791 -0.034618 0.139975 0.014749 -0.448735 -1.510790 3.707042 1.163100 -1.678561 -14.650949 0.000000 0.000000 0.000000 0.957952 -0.683198 1.014823 12.390303 3.249936 -3.310209 -4.547834 4.331502 -46.489532 -0.185116 -35.175256 -6.185065 0.000000 0.000000 0.000000 -2.951489 0.419448 0.373487 6.212519 -13.224337 -4.062645 8.673848 -9.569944 -47.683658 -0.201984 30.302192 -4.583173 0.000000 0.000000 0.000000 
7.286566 81.711693 5.260585 -179.984186 0.954655 -179.928998 -3.846450 -0.911688 10.901265 0.959667 1.180442 -22.073500 7.497459 4.049149 28.354601 -2.351734 -9.200713 -8.051177 0.000000 0.000000 0.000000 -0.815702 -0.796133 10.441738 -5.162030 1.738832 -20.633336 -1.282700 2.594498 31.148542 10.304338 5.077058 -9.632564 0.000000 0.000000 0.000000 2.926520 1.726172 -2.046488 -5.616847 1.908384 0.446640 -0.112448 -2.703802 3.128642 0.001075 -0.012839 -0.007296 -0.529330 -1.530247 3.637161 1.171846 -1.783272 -14.730739 0.000000 0.000000 0.000000 0.911225 -0.659955 0.950471 12.428565 3.383622 -3.367266 -4.580484 4.402308 -46.382169 -0.254333 -35.177438 -6.158021 0.000000 0.000000 0.000000 -2.997924 0.465472 0.429273 6.113715 -13.150214 -4.152899 8.753592 -9.388631 -47.863309 -0.144079 30.157218 -4.510394 0.000000 0.000000 0.000000 
7.275234 81.699768 5.262346 179.926471 0.805681 -179.942167 -3.952881 -0.958482 10.928286 1.075441 1.155065 -22.105815 7.281798 3.946503 28.386177 -2.128876 -9.167510 -8.141437 0.000000 0.000000 0.000000 -0.839686 -0.856996 10.504101 -5.250257 1.723644 -20.608554 -1.346974 2.592658 31.088572 10.389955 5.019846 -9.738893 0.000000 0.000000 0.000000 2.898998 1.697215 -1.967909 -5.653886 1.902672 0.379524 -0.173037 -2.676835 3.148407 -0.031520 -0.006413 0.016755 -0.493822 -1.482054 3.604241 1.164028 -1.877223 -14.689754 0.000000 0.000000 0.000000 0.960187 -0.693658 0.939465 12.438894 3.435320 -3.473584 -4.571645 4.332729 -46.236532 -0.338924 -34.989447 -6.118267 0.000000 0.000000 0.000000 -2.962746 0.466135 0.316822 6.057580 -13.151768 -4.265128 8.861074 -9.377403 -47.995183 0.027546 30.022841 -4.294588 0.000000 0.000000 0.000000 
7.259617 81.685219 5.270144 -179.948533 0.794780 -179.958614 -3.407737 -0.949302 10.933816 0.520065 1.271598 -22.107015 7.628006 4.164491 28.349528 -2.262871 -9.769863 -8.078907 0.000000 0.000000 0.000000 -0.771455 -0.863086 10.533645 -5.146367 1.806734 -20.584356 -1.355386 2.678328 31.065340 10.409465 4.909418 -9.833991 0.000000 0.000000 0.000000 2.990668 1.650670 -1.828354 -5.582253 1.908988 0.295374 -0.137157 -2.650366 3.160028 -0.010638 0.010589 -0.000989 -0.578290 -1.529948 3.652362 1.099127 -1.656054 -14.671187 0.000000 0.000000 0.000000 0.886225 -0.658902 0.968655 12.479094 3.585984 -3.446176 -4.582606 4.251487 -46.244786 -0.256989 -34.892882 -6.310009 0.000000 0.000000 0.000000 -3.024881 0.427186 0.411164 6.072011 -13.183440 -4.234831 8.932290 -9.148562 -48.099606 -0.046046 29.814968 -4.407711 0.000000 0.000000 0.000000 
7.251766 81.684692 5.288708 -179.962712 0.688275 -179.978121 -3.477791 -1.025601 10.977959 0.680934 1.174945 -22.066108 7.328192 4.141685 28.292247 -2.178640 -9.482712 -8.208940 0.000000 0.000000 0.000000 -0.798822 -0.972331 10.603829 -5.104553 1.853133 -20.504288 -1.408243 2.703901 30.963081 10.489188 4.811117 -9.890743 0.000000 0.000000 0.000000 3.028411 1.677695 -1.694456 -5.570787 2.005136 0.167944 -0.205127 -2.720258 3.189391 -0.059308 -0.078525 0.016713 -0.587182 -1.421630 3.606856 0.999864 -1.526282 -14.626908 0.000000 0.000000 0.000000 0.926398 -0.634680 0.946292 12.495917 3.747555 -3.546157 -4.584517 4.129818 -46.113165 -0.199377 -34.751299 -6.437619 0.000000 0.000000 0.000000 -3.012170 0.478371 0.295409 6.065464 -13.187991 -4.200976 9.066855 -9.208774 -48.059888 -0.062171 29.717033 -4.353035 0.000000 0.000000 0.000000 
7.243046 81.692207 5.312288 179.944271 0.633900 -179.991016 -3.502312 -1.132261 11.026816 0.686659 1.197537 -21.997802 7.108003 4.088436 28.153367 -1.935748 -9.392347 -8.281849 0.000000 0.000000 0.000000 -0.614509 -1.158084 10.655590 -5.384294 1.734906 -20.454058 -1.522774 2.787965 30.852965 10.754146 4.866912 -10.018692 0.000000 0.000000 0.000000 3.013947 1.524883 -1.525307 -5.591374 1.920286 0.024310 -0.251236 -2.575850 3.230862 -0.008557 0.030612 0.010318 -0.611080 -1.394969 3.646450 0.995772 -1.404608 -14.531357 0.000000 0.000000 0.000000 0.853756 -0.644805 0.942823 12.499252 3.917466 -3.667332 -4.593984 4.131343 -46.239558 -0.226654 -34.672096 -6.540885 0.000000 0.000000 0.000000 -3.081450 0.439141 0.267711 6.021084 -13.240359 -4.346503 9.136759 -9.242248 -48.202896 0.022661 29.780400 -4.240989 0.000000 0.000000 0.000000 
7.227085 81.699753 5.341091 -179.858647 0.678538 -179.997355 -3.441756 -1.127499 11.069309 0.946029 1.266622 -21.950126 6.821342 4.158960 28.036362 -1.750331 -9.380049 -8.500068 0.000000 0.000000 0.000000 -0.573620 -1.183715 10.710183 -5.177371 1.895855 -20.411973 -1.560021 2.969317 30.699429 10.693530 4.716256 -10.043251 0.000000 0.000000 0.000000 3.148119 1.402856 -1.331794 -5.482410 1.833119 -0.178159 -0.228336 -2.587016 3.250398 0.045479 0.013048 -0.007990 -0.755249 -1.470531 3.616746 0.919393 -1.400817 -14.513657 0.000000 0.000000 0.000000 0.784872 -0.647359 0.821690 12.502301 4.272504 -3.752357 -4.650073 4.284400 -46.173151 -0.273455 -34.622325 -6.587968 0.000000 0.000000 0.000000 -3.206789 0.537385 0.366957 6.032459 -13.116582 -4.267674 9.178455 -9.145112 -48.390005 -0.081753 29.984653 -4.344262 0.000000 0.000000 0.000000 
7.209953 81.709259 5.370414 -179.941798 0.555355 179.928711 -3.391341 -1.197499 11.166522 0.838044 1.180852 -21.869451 6.587535 4.118194 27.789082 -1.598434 -9.280191 -8.551460 0.000000 0.000000 0.000000 -0.473844 -1.306233 10.810016 -5.381884 1.895701 -20.387227 -1.613282 3.048036 30.476167 10.690332 4.753609 -10.219589 0.000000 0.000000 0.000000 3.100974 1.385904 -1.085820 -5.504961 1.805157 -0.357059 -0.317704 -2.515200 3.322980 -0.034698 0.035113 0.012934 -0.671834 -1.340352 3.587818 0.837867 -1.190086 -14.391987 0.000000 0.000000 0.000000 0.821273 -0.563775 0.915441 12.443885 4.318887 -3.810154 -4.616701 4.216520 -46.121515 -0.215007 -34.558845 -6.675339 0.000000 0.000000 0.000000 -3.131505 0.525619 0.250824 6.058574 -13.148745 -4.349050 9.225817 -9.362129 -48.520066 0.034606 30.234464 -4.109242 0.000000 0.000000 0.000000 
7.185009 81.713348 5.388870 -179.935473 0.536088 179.995716 -3.446148 -1.117304 11.207750 1.021238 1.208672 -21.868408 6.284428 4.011995 27.634008 -1.368597 -9.196981 -8.751809 0.000000 0.000000 0.000000 -0.524460 -1.314095 10.875880 -5.281656 1.957399 -20.416265 -1.605847 3.151893 30.321354 10.769642 4.501590 -10.363403 0.000000 0.000000 0.000000 3.053578 1.370098 -0.896231 -5.501200 1.681742 -0.609160 -0.336960 -2.513769 3.343047 -0.012947 0.013946 -0.023548 -0.716846 -1.304359 3.627172 0.732539 -1.049851 -14.300472 0.000000 0.000000 0.000000 0.833395 -0.505954 0.926464 12.388350 4.507212 -3.843693 -4.627280 4.358574 -45.933408 -0.110888 -34.579028 -6.815457 0.000000 0.000000 0.000000 -3.177965 0.643856 0.328498 6.151377 -12.989907 -4.175087 9.297814 -9.568053 -48.678919 -0.178141 30.573252 -4.284477 0.000000 0.000000 0.000000 
7.171470 81.717293 5.401756 -179.955964 0.493726 179.899738 -3.563188 -0.782169 11.314007 1.183967 1.146291 -21.812359 5.995131 3.859162 27.418635 -1.207665 -9.196282 -8.893992 0.000000 0.000000 0.000000 -0.402150 -1.503478 11.007957 -5.425063 1.887285 -20.378735 -1.649588 3.378898 30.125936 10.814080 4.515738 -10.572605 0.000000 0.000000 0.000000 2.943902 1.389335 -0.598625 -5.499764 1.556251 -0.800059 -0.339450 -2.463341 3.389005 -0.015855 0.035271 -0.072872 -0.694487 -1.282815 3.687511 0.669317 -0.864840 -14.124911 0.000000 0.000000 0.000000 0.812085 -0.342485 1.023466 12.337658 4.530088 -3.939203 -4.576040 4.319153 -45.616675 -0.088077 -34.592740 -6.748162 0.000000 0.000000 0.000000 -3.167500 0.690648 0.381888 6.255338 -12.902360 -4.128905 9.373327 -9.788128 -48.866534 -0.335226 30.789779 -4.339536 0.000000 0.000000 0.000000 
7.159685 81.716148 5.395481 -179.873401 0.297341 179.970690 -3.580129 -0.526274 11.392833 1.454074 0.942882 -21.802572 5.664996 3.714873 27.042888 -1.165475 -9.155868 -8.927417 0.000000 0.000000 0.000000 -0.878092 -1.697250 11.146267 -4.689628 2.014175 -20.292680 -1.736743 3.642767 29.556892 10.645723 4.268818 -10.399182 0.000000 0.000000 0.000000 2.862121 1.446802 -0.432024 -5.478011 1.400424 -1.059426 -0.327854 -2.448676 3.457717 -0.032647 0.013877 0.001970 -0.718786 -1.249727 3.638762 0.566671 -0.671616 -13.956121 0.000000 0.000000 0.000000 0.823616 -0.431739 1.009882 12.248955 4.636676 -4.035470 -4.588085 4.316759 -45.237357 -0.043884 -34.642122 -6.577712 0.000000 0.000000 0.000000 -3.162067 0.700202 0.383688 6.406520 -12.856774 -4.082338 9.439040 -9.959296 -49.403595 -0.231368 31.058810 -4.069070 0.000000 0.000000 0.000000 
7.184225 81.726738 5.378029 -179.966209 0.130511 179.808227 -3.571981 -0.235232 11.563806 1.682284 0.399287 -21.537844 5.342759 3.873389 26.480440 -1.081756 -9.135122 -8.947286 0.000000 0.000000 0.000000 -0.608837 -1.669244 11.319755 -5.116759 1.825472 -19.979611 -1.693178 3.477054 29.236116 10.811380 4.410304 -10.586276 0.000000 0.000000 0.000000 2.623731 1.508005 -0.125376 -5.513375 1.250722 -1.237377 -0.324228 -2.394651 3.538250 -0.038280 0.013884 -0.041783 -0.640584 -1.167545 3.670253 0.460764 -0.461740 -13.715645 0.000000 0.000000 0.000000 0.908930 -0.424673 1.045220 12.072802 4.642425 -4.206017 -4.671678 4.425602 -44.838655 -0.042857 -34.787274 -6.301872 0.000000 0.000000 0.000000 -3.101552 0.760072 0.390184 6.499643 -12.472887 -3.911803 9.584612 -10.494479 -49.930916 -0.302645 31.395306 -3.958104 0.000000 0.000000 0.000000 
7.208585 81.734261 5.363959 -179.985539 -0.149452 179.893700 -3.552017 -0.120479 11.641212 1.979731 -0.011964 -21.297711 5.017240 4.155060 25.818171 -1.056521 -9.187208 -9.078062 0.000000 0.000000 0.000000 -0.614638 -1.682724 11.434833 -5.077027 1.592342 -19.936834 -1.673761 3.475045 28.843342 10.755636 4.402210 -10.702680 0.000000 0.000000 0.000000 2.421626 1.597977 0.020048 -5.499073 1.067549 -1.523994 -0.280597 -2.397174 3.588710 -0.021395 -0.019597 -0.041209 -0.615275 -1.141423 3.724857 0.362676 -0.295998 -13.404460 0.000000 0.000000 0.000000 0.937361 -0.348016 1.100352 11.927514 4.704347 -4.393143 -4.841065 4.543911 -44.446343 0.151834 -34.991868 -6.115568 0.000000 0.000000 0.000000 -3.047427 0.759155 0.533137 6.656392 -12.150618 -3.680699 9.714473 -10.700921 -50.620461 -0.381663 31.769518 -3.869662 0.000000 0.000000 0.000000 
